<?xml version="1.0" encoding="utf-8"?>
<!-- Generator: Adobe Illustrator 16.0.0, SVG Export Plug-In . SVG Version: 6.00 Build 0)  -->
<!DOCTYPE svg PUBLIC "-//W3C//DTD SVG 1.1//EN" "http://www.w3.org/Graphics/SVG/1.1/DTD/svg11.dtd">
<svg version="1.1" id="Layer_1" xmlns="http://www.w3.org/2000/svg" xmlns:xlink="http://www.w3.org/1999/xlink" x="0px" y="0px"
	 width="140px" height="45px" viewBox="0 0 140 45" enable-background="new 0 0 140 45" xml:space="preserve">
<g>
	<g>
		
			<linearGradient id="SVGID_1_" gradientUnits="userSpaceOnUse" x1="147.2734" y1="-217.7007" x2="156.3281" y2="-217.7007" gradientTransform="matrix(-0.7071 0.7071 0.7071 0.7071 292.3611 69.4656)">
			<stop  offset="0" style="stop-color:#F59FBA"/>
			<stop  offset="1" style="stop-color:#EF5080"/>
		</linearGradient>
		<path fill="url(#SVGID_1_)" d="M27.885,26.069c1.837,1.836,4.758,1.891,6.526,0.123c1.767-1.769,1.714-4.69-0.124-6.526
			c-1.834-1.835-4.758-1.893-6.526-0.123C25.994,21.31,26.051,24.234,27.885,26.069z"/>
		<g>
			
				<linearGradient id="SVGID_2_" gradientUnits="userSpaceOnUse" x1="150.3203" y1="-224.4482" x2="166.5" y2="-224.4482" gradientTransform="matrix(-0.7071 0.7071 0.7071 0.7071 292.3611 69.4656)">
				<stop  offset="0" style="stop-color:#F59FBA"/>
				<stop  offset="1" style="stop-color:#EF5080"/>
			</linearGradient>
			<path fill="url(#SVGID_2_)" d="M21.537,34.106l1.538-1.538c-5.344-5.345-5.25-14.135,0.211-19.596l-1.539-1.539
				C15.437,17.744,15.345,27.913,21.537,34.106z"/>
		</g>
		<g>
			
				<linearGradient id="SVGID_3_" gradientUnits="userSpaceOnUse" x1="145.8799" y1="-228.0015" x2="177.1553" y2="-228.0015" gradientTransform="matrix(-0.7071 0.7071 0.7071 0.7071 292.3611 69.4656)">
				<stop  offset="0" style="stop-color:#F59FBA"/>
				<stop  offset="1" style="stop-color:#EF5080"/>
			</linearGradient>
			<path fill="url(#SVGID_3_)" d="M16.998,44.635l1.54-1.539C7.12,31.679,7.06,13.159,18.405,1.812l-1.539-1.538
				C4.674,12.469,4.731,32.368,16.998,44.635z"/>
		</g>
	</g>
	<g>
		
			<linearGradient id="SVGID_4_" gradientUnits="userSpaceOnUse" x1="-113.9307" y1="5.8203" x2="-104.876" y2="5.8203" gradientTransform="matrix(0.7071 0.7071 -0.7071 0.7071 112.8381 96.2039)">
			<stop  offset="0" style="stop-color:#F59FBA"/>
			<stop  offset="1" style="stop-color:#EF5080"/>
		</linearGradient>
		<path fill="url(#SVGID_4_)" d="M34.565,26.161c-1.836,1.836-4.758,1.891-6.525,0.123c-1.769-1.769-1.714-4.69,0.122-6.526
			c1.835-1.834,4.757-1.891,6.525-0.122C36.455,21.402,36.399,24.326,34.565,26.161z"/>
		<g>
			
				<linearGradient id="SVGID_5_" gradientUnits="userSpaceOnUse" x1="-110.8857" y1="-0.9258" x2="-94.7041" y2="-0.9258" gradientTransform="matrix(0.7071 0.7071 -0.7071 0.7071 112.8381 96.2039)">
				<stop  offset="0" style="stop-color:#F59FBA"/>
				<stop  offset="1" style="stop-color:#EF5080"/>
			</linearGradient>
			<path fill="url(#SVGID_5_)" d="M40.914,34.198l-1.539-1.539c5.343-5.342,5.25-14.132-0.212-19.594l1.539-1.538
				C47.011,17.836,47.106,28.006,40.914,34.198z"/>
		</g>
		<g>
			
				<linearGradient id="SVGID_6_" gradientUnits="userSpaceOnUse" x1="-115.3242" y1="-4.4795" x2="-84.0518" y2="-4.4795" gradientTransform="matrix(0.7071 0.7071 -0.7071 0.7071 112.8381 96.2039)">
				<stop  offset="0" style="stop-color:#F59FBA"/>
				<stop  offset="1" style="stop-color:#EF5080"/>
			</linearGradient>
			<path fill="url(#SVGID_6_)" d="M45.451,44.726l-1.539-1.538C55.331,31.771,55.387,13.25,44.044,1.906l1.539-1.538
				C57.774,12.562,57.718,32.459,45.451,44.726z"/>
		</g>
	</g>
</g>
<g>
	<g>
		<path fill="#FFFFFF" d="M59.258,15.587c0.025,0.314,0.098,0.606,0.217,0.875c0.119,0.268,0.281,0.498,0.485,0.689
			c0.205,0.191,0.445,0.341,0.722,0.447s0.582,0.159,0.914,0.159c0.289,0,0.57-0.032,0.843-0.096s0.511-0.166,0.715-0.307
			c0.205-0.141,0.368-0.323,0.492-0.549s0.185-0.5,0.185-0.824c0-0.264-0.066-0.487-0.198-0.671
			c-0.132-0.183-0.307-0.34-0.524-0.472c-0.217-0.133-0.464-0.247-0.741-0.346c-0.277-0.098-0.556-0.189-0.836-0.274
			c-0.358-0.102-0.713-0.219-1.066-0.352c-0.354-0.132-0.673-0.298-0.958-0.498c-0.286-0.199-0.518-0.446-0.696-0.74
			s-0.268-0.662-0.268-1.105c0-0.365,0.072-0.689,0.217-0.971c0.145-0.28,0.347-0.517,0.606-0.708
			c0.26-0.192,0.568-0.337,0.926-0.435c0.357-0.098,0.753-0.147,1.188-0.147c0.57,0,1.047,0.083,1.431,0.249s0.69,0.377,0.919,0.633
			c0.23,0.255,0.398,0.538,0.505,0.85c0.106,0.311,0.168,0.61,0.185,0.9h-0.971c-0.025-0.29-0.096-0.547-0.211-0.773
			c-0.115-0.225-0.266-0.415-0.453-0.568c-0.188-0.153-0.4-0.268-0.639-0.345c-0.239-0.076-0.494-0.114-0.767-0.114
			c-0.247,0-0.49,0.025-0.728,0.076s-0.451,0.134-0.639,0.249c-0.187,0.115-0.338,0.262-0.453,0.44
			c-0.115,0.179-0.172,0.4-0.172,0.664c0,0.273,0.065,0.503,0.198,0.69c0.132,0.188,0.307,0.349,0.524,0.485
			c0.217,0.136,0.466,0.253,0.747,0.351c0.281,0.099,0.57,0.194,0.869,0.288c0.357,0.11,0.713,0.229,1.066,0.357
			c0.353,0.128,0.668,0.289,0.945,0.485c0.276,0.196,0.502,0.437,0.677,0.722c0.174,0.285,0.262,0.645,0.262,1.079
			s-0.079,0.813-0.236,1.137c-0.158,0.324-0.379,0.597-0.664,0.817c-0.285,0.222-0.622,0.388-1.009,0.498
			c-0.387,0.111-0.811,0.166-1.271,0.166c-0.417,0-0.822-0.07-1.213-0.21c-0.392-0.141-0.741-0.341-1.047-0.601
			c-0.307-0.26-0.556-0.577-0.748-0.952c-0.191-0.374-0.292-0.792-0.3-1.251H59.258z"/>
		<path fill="#FFFFFF" d="M67.062,13.812c0,0.673,0.087,1.258,0.262,1.756c0.174,0.498,0.404,0.909,0.689,1.232
			c0.285,0.324,0.607,0.566,0.964,0.729c0.358,0.161,0.724,0.242,1.099,0.242c0.383,0,0.732-0.07,1.047-0.211
			c0.315-0.14,0.588-0.325,0.818-0.556c0.229-0.229,0.419-0.491,0.568-0.785c0.148-0.294,0.253-0.594,0.312-0.9h0.958
			c-0.085,0.46-0.228,0.888-0.428,1.283c-0.2,0.396-0.458,0.743-0.772,1.041c-0.315,0.299-0.682,0.532-1.1,0.703
			c-0.416,0.17-0.885,0.255-1.404,0.255c-0.604,0-1.149-0.108-1.635-0.325c-0.485-0.218-0.901-0.532-1.246-0.945
			s-0.611-0.915-0.798-1.507c-0.187-0.592-0.281-1.267-0.281-2.024c0-0.579,0.089-1.144,0.268-1.692
			c0.179-0.55,0.437-1.035,0.773-1.456c0.336-0.422,0.749-0.761,1.239-1.016c0.49-0.256,1.045-0.384,1.667-0.384
			c0.528,0,0.998,0.07,1.411,0.211s0.773,0.334,1.08,0.581c0.306,0.247,0.562,0.541,0.766,0.882
			c0.205,0.341,0.366,0.715,0.485,1.124H72.81c-0.229-0.664-0.568-1.158-1.016-1.482c-0.446-0.323-1.024-0.485-1.73-0.485
			c-0.443,0-0.848,0.101-1.213,0.301c-0.366,0.2-0.682,0.473-0.945,0.817c-0.264,0.345-0.471,0.743-0.62,1.194
			S67.062,13.317,67.062,13.812z"/>
		<path fill="#FFFFFF" d="M76.066,9.507v3.845h4.803V9.507h0.945v8.839h-0.945v-4.164h-4.803v4.164h-0.945V9.507H76.066z"/>
		<path fill="#FFFFFF" d="M84.406,9.507l4.496,7.638V9.507h0.945v8.839h-1.264l-4.496-7.639v7.639h-0.945V9.507H84.406z"/>
		<path fill="#FFFFFF" d="M97.077,9.507v0.855h-4.956v2.989h4.663v0.855h-4.663v3.282h5.174v0.856h-6.118V9.507H97.077z"/>
		<path fill="#FFFFFF" d="M100.041,9.507v8.839h-0.945V9.507H100.041z"/>
		<path fill="#FFFFFF" d="M101.867,9.507h3.282c0.588,0,1.115,0.117,1.584,0.352s0.866,0.551,1.194,0.951s0.581,0.866,0.76,1.398
			s0.269,1.101,0.269,1.705c0,0.631-0.094,1.214-0.281,1.75s-0.449,1.005-0.785,1.405c-0.337,0.4-0.737,0.713-1.201,0.938
			s-0.977,0.339-1.539,0.339h-3.282V9.507z M102.8,17.489h1.967c0.468,0,0.898-0.08,1.29-0.242s0.732-0.394,1.021-0.696
			c0.29-0.302,0.516-0.675,0.677-1.117c0.162-0.443,0.243-0.945,0.243-1.508c0-0.612-0.081-1.143-0.243-1.59
			c-0.161-0.447-0.387-0.817-0.677-1.111c-0.289-0.294-0.632-0.511-1.028-0.651c-0.396-0.141-0.823-0.211-1.283-0.211H102.8V17.489z
			"/>
		<path fill="#FFFFFF" d="M116.185,9.507v0.855h-4.955v2.989h4.662v0.855h-4.662v3.282h5.173v0.856h-6.118V9.507H116.185z"/>
		<path fill="#FFFFFF" d="M124.015,12.023c0,0.434-0.104,0.847-0.313,1.238c-0.208,0.392-0.517,0.703-0.926,0.933
			c0.23,0.06,0.417,0.149,0.562,0.269c0.145,0.119,0.259,0.257,0.345,0.415c0.085,0.157,0.143,0.33,0.172,0.517
			c0.03,0.188,0.045,0.375,0.045,0.562v1.341c0,0.196,0.025,0.384,0.077,0.562c0.051,0.179,0.119,0.341,0.204,0.485h-1.021
			c-0.086-0.137-0.139-0.303-0.16-0.498c-0.021-0.196-0.032-0.362-0.032-0.498v-1.405c0-0.17-0.029-0.339-0.089-0.505
			s-0.153-0.314-0.281-0.447c-0.128-0.132-0.294-0.238-0.498-0.319c-0.204-0.08-0.456-0.121-0.754-0.121h-2.669v3.794h-0.945V9.507
			h3.614c0.435,0,0.817,0.074,1.149,0.224c0.332,0.148,0.611,0.343,0.837,0.581s0.396,0.509,0.511,0.811
			C123.957,11.425,124.015,11.725,124.015,12.023z M118.676,13.722h2.669c0.23,0,0.449-0.045,0.658-0.134
			c0.208-0.09,0.392-0.211,0.549-0.364s0.283-0.334,0.377-0.543c0.094-0.208,0.141-0.432,0.141-0.671
			c0-0.238-0.043-0.457-0.128-0.657s-0.204-0.372-0.357-0.518c-0.153-0.145-0.337-0.26-0.549-0.345
			c-0.214-0.085-0.443-0.128-0.69-0.128h-2.669V13.722z"/>
		<path fill="#FFFFFF" d="M126.441,15.587c0.025,0.314,0.098,0.606,0.217,0.875c0.119,0.268,0.281,0.498,0.485,0.689
			s0.445,0.341,0.722,0.447s0.581,0.159,0.913,0.159c0.29,0,0.57-0.032,0.844-0.096c0.272-0.063,0.511-0.166,0.715-0.307
			s0.368-0.323,0.492-0.549c0.123-0.226,0.185-0.5,0.185-0.824c0-0.264-0.065-0.487-0.198-0.671
			c-0.132-0.183-0.306-0.34-0.523-0.472c-0.217-0.133-0.464-0.247-0.74-0.346c-0.277-0.098-0.556-0.189-0.837-0.274
			c-0.357-0.102-0.713-0.219-1.066-0.352c-0.354-0.132-0.673-0.298-0.958-0.498c-0.285-0.199-0.518-0.446-0.696-0.74
			s-0.269-0.662-0.269-1.105c0-0.365,0.072-0.689,0.218-0.971c0.145-0.28,0.347-0.517,0.606-0.708
			c0.26-0.192,0.568-0.337,0.926-0.435s0.754-0.147,1.188-0.147c0.57,0,1.047,0.083,1.431,0.249
			c0.383,0.166,0.689,0.377,0.919,0.633c0.23,0.255,0.398,0.538,0.505,0.85c0.106,0.311,0.168,0.61,0.185,0.9h-0.971
			c-0.025-0.29-0.096-0.547-0.21-0.773c-0.115-0.225-0.267-0.415-0.454-0.568s-0.4-0.268-0.639-0.345
			c-0.238-0.076-0.493-0.114-0.766-0.114c-0.247,0-0.49,0.025-0.729,0.076s-0.451,0.134-0.639,0.249s-0.338,0.262-0.453,0.44
			s-0.173,0.4-0.173,0.664c0,0.273,0.066,0.503,0.198,0.69s0.307,0.349,0.523,0.485c0.218,0.136,0.467,0.253,0.747,0.351
			c0.281,0.099,0.57,0.194,0.869,0.288c0.357,0.11,0.713,0.229,1.066,0.357s0.668,0.289,0.945,0.485
			c0.276,0.196,0.502,0.437,0.677,0.722s0.262,0.645,0.262,1.079s-0.079,0.813-0.236,1.137c-0.157,0.324-0.379,0.597-0.664,0.817
			c-0.285,0.222-0.622,0.388-1.009,0.498c-0.388,0.111-0.812,0.166-1.271,0.166c-0.417,0-0.821-0.07-1.213-0.21
			c-0.392-0.141-0.741-0.341-1.048-0.601s-0.556-0.577-0.747-0.952c-0.191-0.374-0.292-0.792-0.3-1.251H126.441z"/>
		<path fill="#FFFFFF" d="M65.082,24.834v0.855h-2.925v7.983h-0.945v-7.983h-2.925v-0.855H65.082z"/>
		<path fill="#FFFFFF" d="M72.311,24.834v0.855h-4.956v2.989h4.663v0.855h-4.663v3.283h5.173v0.855H66.41v-8.839H72.311z"/>
		<path fill="#FFFFFF" d="M74.814,29.139c0,0.673,0.088,1.258,0.262,1.756c0.175,0.498,0.404,0.909,0.689,1.232
			c0.285,0.324,0.607,0.566,0.965,0.729s0.724,0.242,1.099,0.242c0.384,0,0.732-0.07,1.048-0.21
			c0.314-0.141,0.587-0.326,0.816-0.556c0.23-0.23,0.42-0.492,0.568-0.786c0.149-0.294,0.254-0.594,0.313-0.9h0.958
			c-0.086,0.46-0.229,0.888-0.428,1.284c-0.2,0.396-0.458,0.743-0.773,1.041c-0.314,0.298-0.681,0.532-1.098,0.702
			c-0.418,0.17-0.887,0.256-1.405,0.256c-0.604,0-1.149-0.109-1.635-0.326s-0.901-0.532-1.245-0.945
			c-0.346-0.413-0.611-0.915-0.799-1.507s-0.281-1.267-0.281-2.024c0-0.579,0.09-1.144,0.269-1.692
			c0.179-0.55,0.437-1.035,0.772-1.456c0.336-0.422,0.75-0.761,1.239-1.016c0.489-0.256,1.046-0.384,1.667-0.384
			c0.527,0,0.998,0.07,1.411,0.211S80,25.123,80.307,25.37s0.562,0.541,0.767,0.882s0.366,0.715,0.485,1.124h-0.996
			c-0.23-0.664-0.568-1.158-1.016-1.482c-0.447-0.323-1.023-0.485-1.73-0.485c-0.443,0-0.848,0.101-1.213,0.301
			c-0.367,0.2-0.682,0.473-0.945,0.817c-0.265,0.345-0.471,0.743-0.62,1.194S74.814,28.645,74.814,29.139z"/>
		<path fill="#FFFFFF" d="M83.818,24.834v3.845h4.803v-3.845h0.945v8.839h-0.945v-4.164h-4.803v4.164h-0.944v-8.839H83.818z"/>
	</g>
</g>
</svg>
